<?xml version="1.0" standalone="no"?><!DOCTYPE svg PUBLIC "-//W3C//DTD SVG 1.1//EN" "http://www.w3.org/Graphics/SVG/1.1/DTD/svg11.dtd"><svg t="1593828223272" class="icon" viewBox="0 0 2935 1024" version="1.1" xmlns="http://www.w3.org/2000/svg" p-id="3594" xmlns:xlink="http://www.w3.org/1999/xlink" width="573.2421875" height="200"><defs><style type="text/css"></style></defs><path d="M2837.84192 882.2272H97.24928c-53.7088 0-97.24928-43.54048-97.24928-97.24928V231.57248c0-53.7088 43.54048-97.24928 97.24928-97.24928h2740.59264c53.7088 0 97.24928 43.54048 97.24928 97.24928v553.40032c0 53.71392-43.54048 97.2544-97.24928 97.2544z" fill="#00A5F4" p-id="3595"></path><path d="M708.50048 844.13952H118.8608c-41.26208 0-74.71104-33.44896-74.71104-74.71104V254.49984c0-41.26208 33.44896-74.71104 74.71104-74.71104h589.6448v664.35072z" fill="#FFFFFF" p-id="3596"></path><path d="M191.62112 508.63616v64.09216s46.50496 56.95488 84.8384 71.90528h6.2976s66.22208-37.38112 76.19072-67.9936c-0.3584-10.68544-4.62848-52.69504-4.62848-52.69504l-162.69824-15.3088z" fill="#F0D2BA" p-id="3597"></path><path d="M180.10624 480.51712s15.6672 73.10848 70.25664 97.792c8.06912 3.31776 32.75776 13.29152 56.96512 0 3.31264-1.42336 39.86432-32.2816 51.73248-51.27168 5.69856-8.54016 20.89984-109.17888 20.89984-109.17888l-27.0592-66.45248-85.44256 18.51392-94.47424 54.10816 7.12192 56.48896z" fill="#F0E0C9" p-id="3598"></path><path d="M429.32224 557.0048l-6.16448 77.60896 26.58816 47.47264h80.21504l35.12832-34.65728-29.91104-81.536-18.8672-32.7424-86.9888 23.85408z" fill="#F0D2BA" p-id="3599"></path><path d="M389.21216 490.48064s22.4256 76.9024 62.65344 82.95936c4.98688 0.35328 28.12416 8.54528 44.85632-5.69856 2.49344-1.77664 62.65856-42.71616 63.37024-96.12288-1.77664-19.2256-19.93728-111.0784-19.93728-111.0784l-38.79424 7.4752-59.1104 23.85408-40.59136 40.23296c0.01024-0.01024-12.44672 58.37824-12.44672 58.37824z" fill="#F0E0C9" p-id="3600"></path><path d="M592.49664 607.616s66.04288 32.74752 66.04288 66.03776c0 22.44096-1.37728 60.83072-2.27328 83.456-0.64 16.1536-13.78304 29.08672-29.94688 29.21984l-0.80384 0.00512h-165.57568a37.21216 37.21216 0 0 1-36.90496-32.48128l-9.97376-77.89568s68.35712 5.7088 107.1616 3.21024c5.34528-0.70144 64.09216-35.58912 72.27392-71.552z" fill="#70C09D" p-id="3601"></path><path d="M525.7472 373.3504s-18.69312 43.79136-61.7728 55.18336c-11.7504 0-42.368 7.4752-49.48992 17.09056-4.62336-9.61536-10.32704-97.19296-10.32704-97.19296l-17.09056-53.04832s34.8928-35.24096 60.16512-37.02272c25.28256-1.77664 60.17024-7.4752 74.76736 11.03872 4.98176 0 66.57024 7.8336 80.81408 111.4368 1.41824 14.24384 7.35232 112.50688 5.46304 134.33856 3.328 13.29664 19.93728 110.60736-11.392 157.12768-4.2752 12.81024-10.44992 22.30272 2.84672 34.64192 1.90464 10.44992 1.88928 38.4512-37.02784 47.95392 0.95744-7.59296-0.9472-40.35072-7.58272-47.95392-6.64576-7.59296 5.68832-41.29792-8.54528-56.0128 0 0-25.16992 10.91584-30.86336-28.9536v-66.93888s42.7264-47.4624 38.92736-100.15744c-3.78368-28.9536-13.17888-83.78368-28.89216-81.53088z" fill="#8F5632" p-id="3602"></path><path d="M397.04576 505.07264a32.7424 32.7424 0 0 1 0-1.41824" fill="#61341C" p-id="3603"></path><path d="M367.33952 556.53888c1.93536-0.04096 4.69504 3.26656 8.69888 16.18944 2.48832 11.74528 9.61024 40.576 48.77312 55.8848 4.62848-0.70656 14.23872-46.63296 6.41024-67.6352-4.19328-6.28736-33.73568-31.41632-34.18112-55.90528" fill="#8F5632" p-id="3604"></path><path d="M397.04576 503.6544c-0.3584-4.62336 19.2256-38.4512 19.2256-72.27392 0-19.93728 12.46208-109.29664-24.20736-145.60768-5.69856-6.41024-12.10368-20.29056-37.74464-28.84096-7.82848-6.76352-23.49568-33.10592-101.10976-23.1424-44.85632 13.52192-102.528 22.4256-115.34848 119.61856-0.71168 13.53216-6.05184 91.136 2.84672 114.99008 7.1168 16.37888 46.27968 98.97472 57.3184 106.10176v-40.95488s-18.87232-57.67168-12.81536-80.45568c2.13504-5.69344 24.20736-46.63808 87.22432-30.6176 15.66208 1.07008 39.51616 0 49.13152-22.07232 3.20512-5.69344 9.61024-19.57888 11.03872-28.48256 4.62848 3.20512 18.15552 1.77664 16.37376 40.93952 3.9168 6.41024 6.05184 8.54528 19.57888 19.2256 0 8.18688 6.76864 48.06144-14.95552 101.46304 0.71168 8.54528 2.14016 40.95488 2.14016 40.95488s2.13504-0.3584 8.89856-15.6672c0.67072-1.0752 1.54112-2.29376 2.69312-2.304" fill="#61341C" p-id="3605"></path><path d="M191.62112 572.72832l-53.80096 45.11232a117.28384 117.28384 0 0 0-22.15936 24.71424 95.232 95.232 0 0 0-16.03584 52.88448v52.06528s-2.17088 38.83008 35.99872 38.83008h261.41184s48.88064-5.34528 49.02912-31.44704c0.10752-19.16416 0.03072-44.61056 0-63.104-0.03072-16.22016-4.42368-44.36992-13.55264-57.7792-19.24096-28.25216-65.11616-62.1568-76.76416-59.50464-17.77152 30.43328-70.5024 74.47552-79.2832 70.12352-8.7808-4.34176-84.84352-71.89504-84.84352-71.89504z" fill="#5FA0C7" p-id="3606"></path><path d="M150.76352 604.9792l67.23072 86.9632c7.49568 9.69728 22.50752 8.38656 28.21632-2.4576l26.56256-50.4832-83.76832-66.09408-38.24128 32.07168zM382.54592 624.53248l-57.35424 74.1888c-6.38976 8.2688-19.19488 7.15264-24.05888-2.09408l-28.35968-53.89824 82.8928-70.00064 26.27584 30.3104a16.96768 16.96768 0 0 1 0.60416 21.49376z" fill="#FFFFFF" p-id="3607"></path><path d="M977.28512 318.5408v78.80704h81.64864c0 132.42368-2.03264 214.07744-6.0928 245.35552-4.06016 30.8736-24.3712 46.3104-60.11904 46.3104-6.49728 0-17.05984-0.81408-31.68256-2.03264l-9.74848-35.33824c13.81376 1.21856 25.58976 2.03264 35.33824 2.03264 17.05984 0 27.21792-9.74848 30.05952-28.43648 2.43712-19.09248 3.65568-82.46272 4.46976-190.5152h-43.87328c-2.43712 118.21056-28.84096 204.73344-79.616 259.97824l-28.84096-25.58976c45.09184-48.74752 68.64896-127.14496 70.27712-234.38336h-61.74208v-37.37088h61.74208v-78.80704h38.17984z m251.4432 367.62112h-37.37088v-25.58976h-64.18432v25.58976h-36.9664v-311.56736h138.5216v311.56736z m-37.37088-62.55616v-212.0448h-64.18432v212.0448h64.18432zM1377.36192 337.63328l32.09216-20.31104c34.11968 23.96672 64.18432 69.46304 90.58816 136.89344 38.58944 95.0528 88.55552 162.07872 150.2976 201.88672l-23.96672 30.464c-63.77472-38.18496-116.992-111.30368-160.04608-219.76064a91.9808 91.9808 0 0 1-2.8416-7.71584c-27.6224 98.304-82.46272 174.26432-164.51584 227.88608l-23.15264-32.90112c84.49024-55.64928 140.14464-135.67488 166.95296-239.6672-17.88416-32.90624-39.81824-58.496-65.408-76.7744zM1929.34912 397.75232c24.3712 27.21792 36.56192 63.37024 36.56192 108.05248 0 43.46368-11.78112 78.80704-35.34336 106.42944 10.56256 14.21824 21.5296 28.84096 32.09216 44.27776l-28.43648 25.18528c-10.96704-15.84128-21.5296-30.8736-32.09216-45.09184-21.5296 12.99968-47.11936 19.49696-77.17888 19.49696-44.27776 0-79.21152-14.62272-104.3968-43.0592-24.3712-27.6224-36.15232-63.37024-36.15232-107.2384 0-44.27776 11.78112-80.0256 36.15232-107.648 25.18528-29.24544 60.11904-43.46368 104.3968-43.46368 43.87328 0 78.80704 14.21824 104.3968 43.0592z m-176.29696 27.21792c-16.25088 19.90656-24.3712 46.71488-24.3712 80.83456 0 33.7152 8.12544 60.52352 24.3712 80.43008 17.05984 20.31104 41.02656 30.8736 71.90016 30.8736 20.31104 0 37.77536-4.46976 51.9936-12.99968a800.51712 800.51712 0 0 0-43.46368-49.96608l25.58976-25.18528c14.62272 15.4368 29.24544 32.09216 43.87328 49.152 12.1856-18.688 18.2784-42.65472 18.2784-72.30464 0-34.93376-8.52992-62.15168-24.7808-82.05312-16.65536-20.31104-40.62208-30.05952-71.49568-30.05952-30.86336 0-54.83008 10.15296-71.89504 31.27808zM2243.31776 397.75232c24.3712 27.21792 36.5568 63.37024 36.5568 108.05248 0 43.46368-11.78112 78.80704-35.33824 106.42944 10.56256 14.21824 21.5296 28.84096 32.09216 44.27776l-28.43648 25.18528c-10.96704-15.84128-21.5296-30.8736-32.09216-45.09184-21.5296 12.99968-47.11936 19.49696-77.17888 19.49696-44.27776 0-79.21152-14.62272-104.3968-43.0592-24.3712-27.6224-36.15232-63.37024-36.15232-107.2384 0-44.27776 11.78112-80.0256 36.15232-107.648 25.18528-29.24544 60.11904-43.46368 104.3968-43.46368 43.87328 0 78.80704 14.21824 104.3968 43.0592z m-176.29696 27.21792c-16.25088 19.90656-24.3712 46.71488-24.3712 80.83456 0 33.7152 8.12544 60.52352 24.3712 80.43008 17.05984 20.31104 41.02656 30.8736 71.90016 30.8736 20.31104 0 37.77536-4.46976 51.9936-12.99968a800.51712 800.51712 0 0 0-43.46368-49.96608l25.58976-25.18528c14.62272 15.4368 29.24544 32.09216 43.87328 49.152 12.1856-18.688 18.2784-42.65472 18.2784-72.30464 0-34.93376-8.52992-62.15168-24.7808-82.05312-16.65536-20.31104-40.62208-30.05952-71.49568-30.05952-30.86848 0-54.8352 10.15296-71.89504 31.27808zM2391.94624 508.24192a552.38656 552.38656 0 0 1-9.344 30.8736h103.58272v149.89312h-34.11968v-21.93408h-54.43072v22.74816h-34.11968v-106.42944a234.73152 234.73152 0 0 1-33.7152 47.93344l-20.31104-32.09216c20.71552-22.74816 36.56192-52.80768 47.11936-90.99264h-28.02688v-32.90112h35.74784c2.03264-12.5952 4.06016-25.58976 5.68832-38.58944h-51.18464v-34.11968h54.02624c0.81408-12.99968 1.21856-25.58976 1.62304-38.58944h-43.46368v-32.90112h144.2048v71.49568h20.31104v34.11968h-20.31104v71.49568h-83.2768z m60.12416 125.11232v-59.30496h-54.43072v59.30496h54.43072zM2399.2576 475.3408h41.02656v-38.58944h-35.33824c-1.62304 13.40416-3.65568 26.39872-5.68832 38.58944z m8.53504-72.71424h32.49664v-38.58944h-30.8736c-0.40448 12.99968-0.81408 25.99424-1.62304 38.58944z m96.67584 25.99936v-36.9664h41.84064a490.43456 490.43456 0 0 0-30.05952-58.496l32.49664-15.4368c11.37152 18.688 22.34368 39.808 32.90112 62.55616l-23.15264 11.37152h38.99904a561.69472 561.69472 0 0 0 29.24544-77.17888l36.15232 12.5952c-8.12544 23.96672-16.65536 45.49632-25.99936 64.5888h38.99904v36.9664h-64.18432v49.55648h55.64928v35.74784h-55.64928v49.96608h73.11872v37.37088h-73.11872v90.58816h-37.77536v-90.58816h-72.30464v-37.37088h72.30464v-49.96608h-59.71456v-35.74784h59.71456v-49.55648h-69.46304z" fill="#FFFFFF" p-id="3608"></path></svg>