<?xml version="1.0" standalone="no"?><!DOCTYPE svg PUBLIC "-//W3C//DTD SVG 1.1//EN" "http://www.w3.org/Graphics/SVG/1.1/DTD/svg11.dtd"><svg class="icon" width="200px" height="200.00px" viewBox="0 0 1024 1024" version="1.1" xmlns="http://www.w3.org/2000/svg"><path fill="#24292e" d="M462.08 192a47.36 47.36 0 0 0 0 64l256 256-256 256a47.36 47.36 0 1 0 64 64l288.64-288.64A50.56 50.56 0 0 0 832 512a47.36 47.36 0 0 0-14.08-33.28L529.28 192a47.36 47.36 0 0 0-67.2 0zM206.08 192a47.36 47.36 0 0 0 0 64l256 256-256 256a47.36 47.36 0 1 0 64 64l291.84-286.08A50.56 50.56 0 0 0 576 512a47.36 47.36 0 0 0-14.08-33.28L273.28 192a47.36 47.36 0 0 0-67.2 0z" /></svg>