<?xml version="1.0" standalone="no"?><!DOCTYPE svg PUBLIC "-//W3C//DTD SVG 1.1//EN" "http://www.w3.org/Graphics/SVG/1.1/DTD/svg11.dtd"><svg t="1590400275242" class="icon" viewBox="0 0 1024 1024" version="1.1" xmlns="http://www.w3.org/2000/svg" p-id="2745" xmlns:xlink="http://www.w3.org/1999/xlink" width="200" height="200"><defs><style type="text/css"></style></defs><path d="M0 327.509333c0-117.674667 95.516444-213.048889 213.333333-213.048889h359.253334a213.219556 213.219556 0 0 1 212.992 200.248889l175.786666-92.928A42.723556 42.723556 0 0 1 1024 259.413333V756.906667a42.609778 42.609778 0 0 1-62.634667 37.660444l-177.834666-94.065778a213.276444 213.276444 0 0 1-210.915556 180.906667H213.333333c-56.604444 0-110.848-22.442667-150.840889-62.407111A212.906667 212.906667 0 0 1 0 668.387556v-75.747556a42.609778 42.609778 0 0 1 64-36.920889c13.198222 7.623111 21.333333 21.674667 21.333333 36.920889v75.747556a127.914667 127.914667 0 0 0 128 127.829333h359.253334c70.684444 0 128-57.230222 128-127.829333v-37.376a42.609778 42.609778 0 0 1 62.691555-37.660445L938.666667 686.165333V330.24l-175.388445 92.728889a42.723556 42.723556 0 0 1-62.663111-37.632v-57.827556a127.914667 127.914667 0 0 0-128-127.829333H213.333333A127.914667 127.914667 0 0 0 85.333333 327.509333v90.453334a42.638222 42.638222 0 0 1-85.333333 0v-90.453334z" p-id="2746"></path><path d="M150.954667 384.284444a118.442667 118.442667 0 0 1 118.528-118.328888h112.526222a118.442667 118.442667 0 0 1 116.252444 118.357333 118.442667 118.442667 0 0 1-116.252444 118.357333H269.482667a118.442667 118.442667 0 0 1-118.528-118.357333z m118.528-33.080888a33.194667 33.194667 0 0 0-29.724445 50.062222c6.172444 10.410667 17.578667 16.611556 29.724445 16.184889h112.526222a33.166222 33.166222 0 0 0 0-66.275556H269.482667z" p-id="2747"></path></svg>